<?xml version="1.0" standalone="no"?>
<!DOCTYPE svg PUBLIC "-//W3C//DTD SVG 20010904//EN"
 "http://www.w3.org/TR/2001/REC-SVG-20010904/DTD/svg10.dtd">
<svg version="1.0" xmlns="http://www.w3.org/2000/svg"
 width="500.000000pt" height="145.000000pt" viewBox="0 0 500.000000 145.000000"
 preserveAspectRatio="xMidYMid meet">

<g transform="translate(0.000000,145.000000) scale(0.100000,-0.100000)"
fill="#000000" stroke="none">
<path d="M1892 1402 c-109 -35 -162 -106 -162 -217 0 -119 49 -176 203 -236
179 -68 217 -102 217 -189 0 -48 -18 -83 -51 -101 -62 -33 -223 -28 -311 10
l-47 20 -16 -44 c-10 -24 -14 -48 -11 -54 11 -17 130 -50 208 -57 216 -19 358
75 358 237 0 98 -60 178 -171 228 -38 17 -101 45 -140 63 -87 39 -119 74 -119
132 0 82 54 120 170 119 47 0 96 -8 132 -20 l57 -19 17 44 c16 43 16 46 -1 58
-27 20 -147 44 -217 43 -35 0 -87 -8 -116 -17z"/>
<path d="M1125 1404 c-16 -2 -45 -7 -62 -10 l-33 -5 0 -419 0 -420 55 0 54 0
3 158 3 157 130 6 c160 8 223 28 283 93 46 50 62 96 62 182 0 118 -66 200
-195 240 -49 15 -240 27 -300 18z m260 -115 c132 -37 155 -222 35 -289 -39
-21 -61 -25 -162 -28 l-118 -4 0 166 0 166 103 0 c56 0 120 -5 142 -11z"/>
<path d="M446 1373 c-53 -105 -326 -788 -326 -818 0 -3 28 -5 61 -3 l62 3 37
105 37 105 193 0 193 0 24 -65 c13 -36 30 -84 39 -108 l16 -42 64 0 c35 0 64
1 64 3 0 25 -246 644 -310 780 l-32 67 -54 0 c-48 0 -55 -3 -68 -27z m169
-365 l53 -138 -154 0 c-85 0 -154 4 -154 9 0 12 92 254 125 326 l26 60 26 -60
c14 -33 49 -122 78 -197z"/>
<path d="M2340 1350 l0 -50 130 0 130 0 0 -375 0 -375 60 0 60 0 2 373 3 372
133 3 132 3 0 49 0 50 -325 0 -325 0 0 -50z"/>
<path d="M3302 1263 c-67 -152 -141 -339 -225 -565 l-55 -148 63 0 63 0 37
110 38 110 192 0 193 0 38 -110 39 -110 62 0 c35 0 63 4 63 9 0 29 -198 530
-311 789 l-23 52 -57 0 -57 0 -60 -137z m219 -257 c27 -70 49 -130 49 -132 0
-2 -70 -4 -156 -4 -145 0 -156 1 -149 18 4 9 20 52 36 95 16 42 48 123 71 179
l42 102 29 -64 c16 -36 51 -123 78 -194z"/>
<path d="M3966 1363 c-15 -98 -56 -655 -56 -765 l0 -48 55 0 c66 0 59 -28 75
320 6 140 15 273 18 294 l7 40 64 -135 c36 -74 91 -192 123 -264 l57 -130 49
-3 49 -3 53 118 c28 65 84 185 123 267 l72 150 7 -40 c3 -21 11 -154 18 -294
16 -348 9 -320 75 -320 l55 0 0 33 c0 59 -31 499 -45 652 -8 83 -15 153 -15
158 0 4 -25 7 -55 7 l-54 0 -94 -187 c-51 -104 -113 -234 -138 -290 -24 -57
-46 -103 -49 -103 -3 0 -27 51 -54 113 -27 61 -89 192 -139 290 l-89 177 -53
0 -53 0 -6 -37z"/>
<path d="M3795 460 c-3 -5 -10 -35 -15 -66 -24 -148 -132 -229 -355 -265 -113
-18 -507 -16 -735 5 -102 9 -270 25 -375 36 -435 45 -782 53 -1007 24 -133
-17 -301 -66 -378 -111 -64 -38 -36 -39 56 -2 133 54 282 79 504 85 234 8 441
-4 911 -51 445 -44 724 -57 940 -45 232 14 335 47 424 136 66 66 107 180 86
237 -11 27 -43 37 -56 17z"/>
<path d="M3900 328 c-29 -108 -74 -172 -154 -219 -28 -17 -40 -27 -26 -23 53
14 118 54 154 94 66 73 97 180 54 188 -12 2 -20 -8 -28 -40z"/>
<path d="M1300 285 c-86 -14 -262 -66 -290 -86 -12 -9 -11 -10 5 -4 122 42
334 75 480 75 84 0 100 14 29 24 -65 9 -125 6 -224 -9z"/>
</g>
</svg>
