<svg width="22" height="28" viewBox="0 0 22 28" fill="none" xmlns="http://www.w3.org/2000/svg">
<path d="M3.96004 20.1865C4.29952 20.0875 4.66442 20.1274 4.97448 20.2974C5.28454 20.4675 5.51436 20.7537 5.61337 21.0932C5.71239 21.4326 5.67249 21.7976 5.50246 22.1076C5.33242 22.4177 5.04619 22.6475 4.70671 22.7465C4.04004 22.9412 3.56004 23.1465 3.25204 23.3332C3.56937 23.5238 4.07071 23.7372 4.76671 23.9358C6.30671 24.3758 8.51071 24.6665 11 24.6665C13.4894 24.6665 15.6934 24.3758 17.2334 23.9358C17.9307 23.7372 18.4307 23.5238 18.748 23.3332C18.4414 23.1465 17.9614 22.9412 17.2947 22.7465C16.9606 22.6431 16.6804 22.4126 16.5147 22.1046C16.3489 21.7966 16.3108 21.4358 16.4086 21.1C16.5064 20.7642 16.7322 20.4802 17.0374 20.3094C17.3425 20.1385 17.7026 20.0944 18.04 20.1865C18.9307 20.4465 19.7467 20.7798 20.3734 21.2078C20.9534 21.6065 21.6667 22.3012 21.6667 23.3332C21.6667 24.3772 20.936 25.0772 20.3467 25.4758C19.7094 25.9052 18.876 26.2398 17.9654 26.4998C16.128 27.0265 13.6667 27.3332 11 27.3332C8.33337 27.3332 5.87204 27.0265 4.03471 26.4998C3.12404 26.2398 2.29071 25.9052 1.65337 25.4758C1.06404 25.0758 0.333374 24.3772 0.333374 23.3332C0.333374 22.3012 1.04671 21.6065 1.62671 21.2078C2.25337 20.7798 3.06937 20.4465 3.96004 20.1865ZM11 0.666504C13.6522 0.666504 16.1957 1.72007 18.0711 3.59544C19.9465 5.4708 21 8.01434 21 10.6665C21 14.0905 19.1334 16.8745 17.2 18.8532C16.4315 19.6317 15.6056 20.3515 14.7294 21.0065C13.9374 21.6012 12.1267 22.7158 12.1267 22.7158C11.7833 22.911 11.3951 23.0137 11 23.0137C10.605 23.0137 10.2168 22.911 9.87337 22.7158C8.9744 22.1954 8.10546 21.6247 7.27071 21.0065C6.3941 20.352 5.56819 19.6321 4.80004 18.8532C2.86671 16.8745 1.00004 14.0905 1.00004 10.6665C1.00004 8.01434 2.05361 5.4708 3.92897 3.59544C5.80434 1.72007 8.34788 0.666504 11 0.666504ZM11 3.33317C9.05512 3.33317 7.18986 4.10579 5.81459 5.48105C4.43932 6.85632 3.66671 8.72158 3.66671 10.6665C3.66671 13.0878 4.99471 15.2372 6.70671 16.9865C7.99471 18.3038 9.41337 19.3065 10.396 19.9225L11 20.2878L11.604 19.9225C12.5854 19.3065 14.0054 18.3038 15.2934 16.9878C17.0054 15.2372 18.3334 13.0878 18.3334 10.6665C18.3334 8.72158 17.5608 6.85632 16.1855 5.48105C14.8102 4.10579 12.945 3.33317 11 3.33317ZM11 6.6665C11.5253 6.6665 12.0455 6.76997 12.5308 6.97099C13.0161 7.172 13.457 7.46664 13.8285 7.83808C14.1999 8.20951 14.4945 8.65047 14.6956 9.13577C14.8966 9.62107 15 10.1412 15 10.6665C15 11.1918 14.8966 11.7119 14.6956 12.1972C14.4945 12.6825 14.1999 13.1235 13.8285 13.4949C13.457 13.8664 13.0161 14.161 12.5308 14.362C12.0455 14.563 11.5253 14.6665 11 14.6665C9.93917 14.6665 8.92176 14.2451 8.17161 13.4949C7.42147 12.7448 7.00004 11.7274 7.00004 10.6665C7.00004 9.60564 7.42147 8.58822 8.17161 7.83808C8.92176 7.08793 9.93917 6.6665 11 6.6665ZM11 9.33317C10.6464 9.33317 10.3073 9.47365 10.0572 9.72369C9.80718 9.97374 9.66671 10.3129 9.66671 10.6665C9.66671 11.0201 9.80718 11.3593 10.0572 11.6093C10.3073 11.8594 10.6464 11.9998 11 11.9998C11.3537 11.9998 11.6928 11.8594 11.9429 11.6093C12.1929 11.3593 12.3334 11.0201 12.3334 10.6665C12.3334 10.3129 12.1929 9.97374 11.9429 9.72369C11.6928 9.47365 11.3537 9.33317 11 9.33317Z" fill="white"/>
</svg>
