<svg width="30" height="22" viewBox="0 0 30 22" fill="none" xmlns="http://www.w3.org/2000/svg">
<path d="M27.4445 0.333496H2.55561C2.08411 0.333496 1.63193 0.520797 1.29853 0.854195C0.965133 1.18759 0.777832 1.63978 0.777832 2.11127V19.8891C0.777832 20.3605 0.965133 20.8127 1.29853 21.1461C1.63193 21.4795 2.08411 21.6668 2.55561 21.6668H27.4445C27.916 21.6668 28.3682 21.4795 28.7016 21.1461C29.035 20.8127 29.2223 20.3605 29.2223 19.8891V2.11127C29.2223 1.63978 29.035 1.18759 28.7016 0.854195C28.3682 0.520797 27.916 0.333496 27.4445 0.333496ZM26.0756 19.8891H4.03117L10.2534 13.4535L8.97339 12.2179L2.55561 18.8579V3.46239L13.6045 14.4579C13.9376 14.7891 14.3882 14.9749 14.8578 14.9749C15.3275 14.9749 15.7781 14.7891 16.1112 14.4579L27.4445 3.18683V18.7424L20.9023 12.2002L19.6489 13.4535L26.0756 19.8891ZM3.72005 2.11127H26.0045L14.8578 13.1957L3.72005 2.11127Z" fill="white"/>
</svg>
