<svg width="26" height="26" viewBox="0 0 26 26" fill="none" xmlns="http://www.w3.org/2000/svg">
<path d="M7.45599 0.385729C5.79199 -0.0366711 4.048 0.142529 2.6816 0.907329C1.2896 1.68493 0.313595 3.06413 0.265595 4.90893C0.191995 7.79213 0.859195 11.6609 3.50879 16.2017C6.12479 20.6865 9.01279 23.3745 11.4096 24.9713C12.9232 25.9809 14.5952 26.0081 16.024 25.3505C17.432 24.7025 18.5744 23.4081 19.168 21.8033C19.3157 21.4042 19.3751 20.9777 19.3419 20.5534C19.3088 20.1291 19.1839 19.7171 18.976 19.3457L17.4496 16.6225C16.9804 15.7844 16.2252 15.1431 15.3222 14.8158C14.4191 14.4886 13.4284 14.4972 12.5312 14.8401L11.4656 15.2481C10.9488 15.4449 10.4736 15.3537 10.2048 15.0881C9.3008 14.2001 8.65439 12.9953 8.36159 11.6961C8.26879 11.2865 8.45759 10.8033 8.90879 10.4625L9.87039 9.73613C10.6478 9.14951 11.1845 8.29943 11.3798 7.34532C11.5751 6.39121 11.4156 5.39862 10.9312 4.55373L9.37599 1.84173C9.16996 1.48268 8.8938 1.16875 8.56396 0.918615C8.23411 0.668481 7.85731 0.487257 7.45599 0.385729ZM1.86559 4.95213C1.89759 3.71373 2.5248 2.82893 3.4624 2.30413C4.4256 1.76493 5.74079 1.60013 7.06239 1.93613C7.25605 1.98504 7.43787 2.07244 7.59703 2.19311C7.75619 2.31379 7.88942 2.46527 7.98879 2.63853L9.5424 5.35053C9.83298 5.85726 9.92878 6.45257 9.81184 7.02488C9.69491 7.59718 9.37326 8.1072 8.9072 8.45933L7.94559 9.18573C7.1136 9.81293 6.53759 10.8881 6.79999 12.0481C7.15519 13.6193 7.94079 15.1089 9.08319 16.2305C9.9184 17.0497 11.1088 17.0977 12.0368 16.7425L13.1024 16.3345C13.6408 16.1284 14.2354 16.123 14.7774 16.3193C15.3194 16.5155 15.7727 16.9003 16.0544 17.4033L17.5792 20.1281C17.7712 20.4705 17.8032 20.8801 17.6672 21.2481C17.2032 22.5041 16.3312 23.4465 15.3552 23.8961C14.4 24.3361 13.32 24.3233 12.2976 23.6401C10.104 22.1777 7.3856 19.6705 4.8896 15.3953C2.392 11.1073 1.79999 7.53293 1.8672 4.95213H1.86559ZM17.3888 0.299329C17.2034 0.196213 16.9846 0.170986 16.7805 0.229197C16.5765 0.287408 16.4039 0.42429 16.3008 0.609729C16.1977 0.795168 16.1725 1.01398 16.2307 1.21801C16.2889 1.42205 16.4258 1.59461 16.6112 1.69773L17.2256 2.04013C19.145 3.10638 20.7777 4.62149 21.9841 6.45598C23.1906 8.29047 23.9349 10.3898 24.1536 12.5745L24.2048 13.0785C24.2108 13.1864 24.2387 13.2919 24.2866 13.3888C24.3345 13.4856 24.4016 13.5717 24.4837 13.6419C24.5658 13.7121 24.6613 13.7649 24.7644 13.7972C24.8675 13.8295 24.9761 13.8406 25.0836 13.8298C25.1911 13.819 25.2953 13.7865 25.3899 13.7343C25.4845 13.6821 25.5676 13.6113 25.6341 13.5262C25.7006 13.441 25.7491 13.3433 25.7768 13.2388C25.8045 13.1344 25.8108 13.0254 25.7952 12.9185L25.7456 12.4161C25.5015 9.97387 24.6696 7.62706 23.321 5.57632C21.9724 3.52558 20.1473 1.83192 18.0016 0.640129L17.3888 0.299329ZM15.5136 4.58733C15.6229 4.40552 15.7999 4.27457 16.0057 4.22326C16.2116 4.17195 16.4294 4.20449 16.6112 4.31373L16.8096 4.43213C18.1011 5.20645 19.2091 6.25201 20.0569 7.49652C20.9047 8.74103 21.4721 10.1548 21.72 11.6401L21.7904 12.0673C21.8105 12.1721 21.8095 12.2798 21.7874 12.3842C21.7653 12.4885 21.7225 12.5874 21.6616 12.675C21.6007 12.7626 21.5229 12.8371 21.4328 12.8942C21.3427 12.9513 21.242 12.9897 21.1368 13.0073C21.0316 13.025 20.9239 13.0213 20.8201 12.9967C20.7163 12.9721 20.6185 12.927 20.5324 12.864C20.4463 12.801 20.3737 12.7214 20.3188 12.6299C20.2639 12.5385 20.2279 12.4369 20.2128 12.3313L20.1408 11.9041C19.9314 10.6476 19.4517 9.45142 18.7349 8.39837C18.018 7.34531 17.0811 6.46045 15.9888 5.80493L15.7904 5.68493C15.7002 5.63094 15.6216 5.55972 15.559 5.47534C15.4964 5.39096 15.451 5.29507 15.4254 5.19314C15.3999 5.09121 15.3946 4.98525 15.41 4.8813C15.4254 4.77736 15.4612 4.67746 15.5152 4.58733H15.5136Z" fill="white"/>
</svg>
